<mxfile host="app.diagrams.net" modified="2024-01-28T17:03:24.207Z" agent="Mozilla/5.0 (Windows NT 10.0; Win64; x64) AppleWebKit/537.36 (KHTML, like Gecko) Chrome/121.0.0.0 Safari/537.36" etag="hdhDTeo_y03pgKXJf7f9" version="23.0.2" type="device">
  <diagram name="Page-1" id="jT2SBeqgrpjNxPlv2E6v">
    <mxGraphModel dx="732" dy="508" grid="1" gridSize="10" guides="1" tooltips="1" connect="1" arrows="1" fold="1" page="1" pageScale="1" pageWidth="850" pageHeight="1100" math="0" shadow="0">
      <root>
        <mxCell id="0" />
        <mxCell id="1" parent="0" />
        <mxCell id="KIMNSwRpj5x9denvoHva-3" value="Restful CRUD App" style="swimlane;whiteSpace=wrap;html=1;" parent="1" vertex="1">
          <mxGeometry x="145" y="90" width="475" height="570" as="geometry" />
        </mxCell>
        <mxCell id="KIMNSwRpj5x9denvoHva-1" value="Regular User" style="shape=umlActor;verticalLabelPosition=bottom;verticalAlign=top;html=1;outlineConnect=0;" parent="KIMNSwRpj5x9denvoHva-3" vertex="1">
          <mxGeometry x="-110" y="60" width="40" height="80" as="geometry" />
        </mxCell>
        <mxCell id="KIMNSwRpj5x9denvoHva-5" value="" style="endArrow=none;html=1;rounded=0;entryX=0;entryY=0.5;entryDx=0;entryDy=0;" parent="KIMNSwRpj5x9denvoHva-3" source="KIMNSwRpj5x9denvoHva-1" target="KIMNSwRpj5x9denvoHva-4" edge="1">
          <mxGeometry width="50" height="50" relative="1" as="geometry">
            <mxPoint x="160" y="190" as="sourcePoint" />
            <mxPoint x="210" y="140" as="targetPoint" />
          </mxGeometry>
        </mxCell>
        <mxCell id="KIMNSwRpj5x9denvoHva-12" value="" style="endArrow=none;html=1;rounded=0;entryX=0;entryY=0.5;entryDx=0;entryDy=0;" parent="KIMNSwRpj5x9denvoHva-3" source="KIMNSwRpj5x9denvoHva-1" target="KIMNSwRpj5x9denvoHva-6" edge="1">
          <mxGeometry width="50" height="50" relative="1" as="geometry">
            <mxPoint x="160" y="290" as="sourcePoint" />
            <mxPoint x="210" y="240" as="targetPoint" />
          </mxGeometry>
        </mxCell>
        <mxCell id="KIMNSwRpj5x9denvoHva-13" value="" style="endArrow=none;html=1;rounded=0;entryX=0;entryY=0.5;entryDx=0;entryDy=0;" parent="KIMNSwRpj5x9denvoHva-3" source="KIMNSwRpj5x9denvoHva-1" target="KIMNSwRpj5x9denvoHva-7" edge="1">
          <mxGeometry width="50" height="50" relative="1" as="geometry">
            <mxPoint x="-50" y="117" as="sourcePoint" />
            <mxPoint x="65" y="170" as="targetPoint" />
          </mxGeometry>
        </mxCell>
        <mxCell id="KIMNSwRpj5x9denvoHva-14" value="" style="endArrow=none;html=1;rounded=0;entryX=0;entryY=0.5;entryDx=0;entryDy=0;" parent="KIMNSwRpj5x9denvoHva-3" source="KIMNSwRpj5x9denvoHva-1" target="KIMNSwRpj5x9denvoHva-8" edge="1">
          <mxGeometry width="50" height="50" relative="1" as="geometry">
            <mxPoint x="-50" y="125" as="sourcePoint" />
            <mxPoint x="65" y="240" as="targetPoint" />
          </mxGeometry>
        </mxCell>
        <mxCell id="KIMNSwRpj5x9denvoHva-32" value="Authentication" style="ellipse;whiteSpace=wrap;html=1;" parent="KIMNSwRpj5x9denvoHva-3" vertex="1">
          <mxGeometry x="375" y="50" width="90" height="60" as="geometry" />
        </mxCell>
        <mxCell id="KIMNSwRpj5x9denvoHva-33" value="" style="edgeStyle=orthogonalEdgeStyle;rounded=0;orthogonalLoop=1;jettySize=auto;html=1;endArrow=classic;endFill=1;dashed=1;" parent="KIMNSwRpj5x9denvoHva-3" source="KIMNSwRpj5x9denvoHva-4" target="KIMNSwRpj5x9denvoHva-32" edge="1">
          <mxGeometry relative="1" as="geometry" />
        </mxCell>
        <mxCell id="KIMNSwRpj5x9denvoHva-34" value="&amp;lt;&amp;lt;include&amp;gt;&amp;gt;" style="text;html=1;align=center;verticalAlign=middle;resizable=0;points=[];autosize=1;strokeColor=none;fillColor=none;" parent="KIMNSwRpj5x9denvoHva-3" vertex="1">
          <mxGeometry x="280" y="50" width="90" height="30" as="geometry" />
        </mxCell>
        <mxCell id="KIMNSwRpj5x9denvoHva-4" value="Login to app" style="ellipse;whiteSpace=wrap;html=1;" parent="KIMNSwRpj5x9denvoHva-3" vertex="1">
          <mxGeometry x="185" y="50" width="90" height="60" as="geometry" />
        </mxCell>
        <mxCell id="KIMNSwRpj5x9denvoHva-6" value="Add item" style="ellipse;whiteSpace=wrap;html=1;" parent="KIMNSwRpj5x9denvoHva-3" vertex="1">
          <mxGeometry x="225" y="120" width="90" height="60" as="geometry" />
        </mxCell>
        <mxCell id="KIMNSwRpj5x9denvoHva-7" value="Update item" style="ellipse;whiteSpace=wrap;html=1;" parent="KIMNSwRpj5x9denvoHva-3" vertex="1">
          <mxGeometry x="225" y="190" width="90" height="60" as="geometry" />
        </mxCell>
        <mxCell id="KIMNSwRpj5x9denvoHva-8" value="Search item(s)" style="ellipse;whiteSpace=wrap;html=1;" parent="KIMNSwRpj5x9denvoHva-3" vertex="1">
          <mxGeometry x="225" y="260" width="90" height="60" as="geometry" />
        </mxCell>
        <mxCell id="KIMNSwRpj5x9denvoHva-15" value="Add User" style="ellipse;whiteSpace=wrap;html=1;" parent="KIMNSwRpj5x9denvoHva-3" vertex="1">
          <mxGeometry x="225" y="340" width="90" height="60" as="geometry" />
        </mxCell>
        <mxCell id="KIMNSwRpj5x9denvoHva-16" value="Delete item" style="ellipse;whiteSpace=wrap;html=1;" parent="KIMNSwRpj5x9denvoHva-3" vertex="1">
          <mxGeometry x="225" y="490" width="90" height="60" as="geometry" />
        </mxCell>
        <mxCell id="KIMNSwRpj5x9denvoHva-22" value="&lt;font style=&quot;font-size: 11px;&quot;&gt;Update Regular User&lt;/font&gt;" style="ellipse;whiteSpace=wrap;html=1;" parent="KIMNSwRpj5x9denvoHva-3" vertex="1">
          <mxGeometry x="225" y="410" width="90" height="60" as="geometry" />
        </mxCell>
        <mxCell id="KIMNSwRpj5x9denvoHva-25" value="Role Management" style="ellipse;whiteSpace=wrap;html=1;" parent="KIMNSwRpj5x9denvoHva-3" vertex="1">
          <mxGeometry x="25" y="340" width="90" height="60" as="geometry" />
        </mxCell>
        <mxCell id="KIMNSwRpj5x9denvoHva-27" value="&amp;lt;&amp;lt;extend&amp;gt;&amp;gt;" style="text;html=1;align=center;verticalAlign=middle;resizable=0;points=[];autosize=1;strokeColor=none;fillColor=none;" parent="KIMNSwRpj5x9denvoHva-3" vertex="1">
          <mxGeometry x="130" y="340" width="90" height="30" as="geometry" />
        </mxCell>
        <mxCell id="KIMNSwRpj5x9denvoHva-26" value="" style="edgeStyle=orthogonalEdgeStyle;rounded=0;orthogonalLoop=1;jettySize=auto;html=1;dashed=1;startArrow=classic;startFill=1;endArrow=none;endFill=0;" parent="KIMNSwRpj5x9denvoHva-3" source="KIMNSwRpj5x9denvoHva-15" target="KIMNSwRpj5x9denvoHva-25" edge="1">
          <mxGeometry relative="1" as="geometry" />
        </mxCell>
        <mxCell id="KIMNSwRpj5x9denvoHva-29" value="" style="edgeStyle=orthogonalEdgeStyle;rounded=0;orthogonalLoop=1;jettySize=auto;html=1;dashed=1;entryX=0.5;entryY=1;entryDx=0;entryDy=0;exitX=0;exitY=0.5;exitDx=0;exitDy=0;endArrow=none;endFill=0;startArrow=classic;startFill=1;" parent="KIMNSwRpj5x9denvoHva-3" source="KIMNSwRpj5x9denvoHva-22" target="KIMNSwRpj5x9denvoHva-25" edge="1">
          <mxGeometry relative="1" as="geometry">
            <mxPoint x="220" y="400" as="sourcePoint" />
            <mxPoint x="110" y="400" as="targetPoint" />
          </mxGeometry>
        </mxCell>
        <mxCell id="KIMNSwRpj5x9denvoHva-30" value="&amp;lt;&amp;lt;extend&amp;gt;&amp;gt;" style="text;html=1;align=center;verticalAlign=middle;resizable=0;points=[];autosize=1;strokeColor=none;fillColor=none;" parent="KIMNSwRpj5x9denvoHva-3" vertex="1">
          <mxGeometry x="115" y="410" width="90" height="30" as="geometry" />
        </mxCell>
        <mxCell id="KIMNSwRpj5x9denvoHva-17" value="Super User" style="shape=umlActor;verticalLabelPosition=bottom;verticalAlign=top;html=1;outlineConnect=0;" parent="1" vertex="1">
          <mxGeometry x="660" y="230" width="40" height="80" as="geometry" />
        </mxCell>
        <mxCell id="KIMNSwRpj5x9denvoHva-18" value="" style="endArrow=none;html=1;rounded=0;exitX=1;exitY=1;exitDx=0;exitDy=0;" parent="1" source="KIMNSwRpj5x9denvoHva-4" target="KIMNSwRpj5x9denvoHva-17" edge="1">
          <mxGeometry width="50" height="50" relative="1" as="geometry">
            <mxPoint x="410" y="405" as="sourcePoint" />
            <mxPoint x="460" y="355" as="targetPoint" />
          </mxGeometry>
        </mxCell>
        <mxCell id="KIMNSwRpj5x9denvoHva-20" value="" style="endArrow=none;html=1;rounded=0;exitX=0.937;exitY=0.244;exitDx=0;exitDy=0;exitPerimeter=0;" parent="1" source="KIMNSwRpj5x9denvoHva-16" target="KIMNSwRpj5x9denvoHva-17" edge="1">
          <mxGeometry width="50" height="50" relative="1" as="geometry">
            <mxPoint x="392" y="484" as="sourcePoint" />
            <mxPoint x="550" y="234" as="targetPoint" />
          </mxGeometry>
        </mxCell>
        <mxCell id="KIMNSwRpj5x9denvoHva-19" value="" style="endArrow=none;html=1;rounded=0;exitX=1;exitY=0;exitDx=0;exitDy=0;" parent="1" source="KIMNSwRpj5x9denvoHva-15" target="KIMNSwRpj5x9denvoHva-17" edge="1">
          <mxGeometry width="50" height="50" relative="1" as="geometry">
            <mxPoint x="405" y="215" as="sourcePoint" />
            <mxPoint x="540" y="224" as="targetPoint" />
          </mxGeometry>
        </mxCell>
        <mxCell id="KIMNSwRpj5x9denvoHva-21" value="" style="endArrow=none;html=1;rounded=0;exitX=1;exitY=0;exitDx=0;exitDy=0;" parent="1" source="KIMNSwRpj5x9denvoHva-8" target="KIMNSwRpj5x9denvoHva-17" edge="1">
          <mxGeometry width="50" height="50" relative="1" as="geometry">
            <mxPoint x="392" y="464" as="sourcePoint" />
            <mxPoint x="550" y="235" as="targetPoint" />
          </mxGeometry>
        </mxCell>
        <mxCell id="KIMNSwRpj5x9denvoHva-23" value="" style="endArrow=none;html=1;rounded=0;exitX=0.957;exitY=0.132;exitDx=0;exitDy=0;exitPerimeter=0;" parent="1" source="KIMNSwRpj5x9denvoHva-22" target="KIMNSwRpj5x9denvoHva-17" edge="1">
          <mxGeometry width="50" height="50" relative="1" as="geometry">
            <mxPoint x="380" y="465" as="sourcePoint" />
            <mxPoint x="430" y="415" as="targetPoint" />
          </mxGeometry>
        </mxCell>
      </root>
    </mxGraphModel>
  </diagram>
</mxfile>
